<svg width="22" height="19" viewBox="0 0 22 19" fill="none" xmlns="http://www.w3.org/2000/svg">
<path d="M13.2773 3.17969C13.2773 2.29167 13.5924 1.53971 14.2227 0.923828C14.8529 0.307943 15.612 0 16.5 0C17.0729 0 17.61 0.143229 18.1113 0.429688C18.6126 0.716146 19.0065 1.10287 19.293 1.58984C19.5794 2.07682 19.7227 2.61393 19.7227 3.20117C19.7227 3.78841 19.5794 4.33268 19.293 4.83398C19.0065 5.33529 18.6126 5.72917 18.1113 6.01562C17.61 6.30208 17.0729 6.44531 16.5 6.44531C16.013 6.44531 15.5547 6.34505 15.125 6.14453C15.0104 4.85547 14.3945 3.86719 13.2773 3.17969ZM11.1719 9.75391C10.7422 9.75391 10.3268 9.66797 9.92578 9.49609C9.52474 9.32422 9.18099 9.09505 8.89453 8.80859C8.60807 8.52214 8.37891 8.17839 8.20703 7.77734C8.03516 7.3763 7.94922 6.96094 7.94922 6.53125C7.94922 5.64323 8.26432 4.88411 8.89453 4.25391C9.52474 3.6237 10.2839 3.30859 11.1719 3.30859C12.0599 3.30859 12.819 3.6237 13.4492 4.25391C14.0794 4.88411 14.3945 5.64323 14.3945 6.53125C14.3945 7.41927 14.0794 8.17839 13.4492 8.80859C12.819 9.4388 12.0599 9.75391 11.1719 9.75391ZM12.5469 9.96875C13.6641 9.96875 14.6309 10.377 15.4473 11.1934C16.2637 12.0098 16.6719 12.9909 16.6719 14.1367V17.4453H16.6289L16.4141 17.5742C15.2109 18.1758 13.5781 18.4766 11.5156 18.4766C9.71094 18.4766 7.83464 18.1758 5.88672 17.5742L5.67188 17.5312V17.4453V14.1367C5.67188 13.8503 5.70052 13.571 5.75781 13.2988C5.8151 13.0267 5.89388 12.7689 5.99414 12.5254C6.0944 12.2819 6.21615 12.0456 6.35938 11.8164C6.5026 11.5872 6.66732 11.3796 6.85352 11.1934C7.03971 11.0072 7.2474 10.8424 7.47656 10.6992C7.70573 10.556 7.94206 10.4271 8.18555 10.3125C8.42904 10.1979 8.68685 10.112 8.95898 10.0547C9.23112 9.9974 9.51042 9.96875 9.79688 9.96875H12.5469ZM17.875 6.66016C19.0208 6.66016 19.9948 7.0612 20.7969 7.86328C21.599 8.66536 22 9.63932 22 10.7852V14.1367H21.957L21.7422 14.2227C20.6823 14.7669 19.25 15.082 17.4453 15.168V14.1367C17.4453 13.0195 17.1159 12.0312 16.457 11.1719C15.7982 10.3125 14.9531 9.72526 13.9219 9.41016C14.724 8.66536 15.1393 7.7487 15.168 6.66016H17.875ZM5.5 6.44531C4.61198 6.44531 3.85286 6.13021 3.22266 5.5C2.59245 4.86979 2.27734 4.11068 2.27734 3.22266C2.27734 2.33463 2.59245 1.57552 3.22266 0.945312C3.85286 0.315104 4.61198 0 5.5 0C6.07292 0 6.61003 0.143229 7.11133 0.429688C7.61263 0.716146 8.00651 1.10287 8.29297 1.58984C8.57943 2.07682 8.72266 2.62109 8.72266 3.22266C8.72266 3.22266 8.72266 3.27995 8.72266 3.39453C7.89193 4.05339 7.39062 4.89844 7.21875 5.92969C6.70312 6.27344 6.13021 6.44531 5.5 6.44531ZM8.37891 9.41016C7.3763 9.72526 6.54557 10.3125 5.88672 11.1719C5.22786 12.0312 4.89844 13.0195 4.89844 14.1367V15.125C3.38021 15.0391 1.83333 14.7526 0.257812 14.2656L0 14.1797V14.1367V10.7852C0 9.63932 0.401042 8.66536 1.20312 7.86328C2.00521 7.0612 2.97917 6.66016 4.125 6.66016H6.875C6.93229 6.66016 7.03255 6.66016 7.17578 6.66016C7.20443 7.7487 7.60547 8.66536 8.37891 9.41016Z" fill="#CC9A06"/>
</svg>
