<svg width="23" height="19" viewBox="0 0 23 19" fill="none" xmlns="http://www.w3.org/2000/svg">
<path d="M17.4375 8.125C20.2148 8.125 22.5 10.4102 22.5 13.1875C22.5 16 20.2148 18.25 17.4375 18.25C14.625 18.25 12.375 16 12.375 13.1875C12.375 10.4102 14.625 8.125 17.4375 8.125ZM19.6875 13.4336V12.9766C19.6875 12.8008 19.5117 12.625 19.3359 12.625H18V10.7266C18 10.5508 17.8242 10.4102 17.6484 10.4102H17.1914C17.0156 10.4102 16.875 10.5508 16.875 10.7266V13.4336C16.875 13.6094 17.0156 13.75 17.1914 13.75H19.3359C19.5117 13.75 19.6875 13.6094 19.6875 13.4336ZM17.4375 7C16.1016 7 14.8711 7.42188 13.8867 8.125H0V5.3125C0 4.43359 0.773438 3.625 1.6875 3.625H4.5V1.9375C4.5 1.05859 5.27344 0.25 6.1875 0.25H11.8125C12.6914 0.25 13.5 1.05859 13.5 1.9375V3.625H16.3125C17.1914 3.625 18 4.43359 18 5.3125V7.03516C17.7891 7.03516 17.6133 7 17.4375 7ZM11.25 3.625V2.5H6.75V3.625H11.25ZM11.4609 11.5C11.3203 12.0625 11.25 12.625 11.25 13.1875C11.25 14.207 11.4961 15.1562 11.918 16H1.6875C0.773438 16 0 15.2266 0 14.3125V9.25H6.75V10.9375C6.75 11.2539 6.99609 11.5 7.3125 11.5H11.4609Z" fill="#CC9A06"/>
</svg>
