<svg width="22" height="22" viewBox="0 0 22 22" fill="none" xmlns="http://www.w3.org/2000/svg">
<g clip-path="url(#clip0_6016_19572)">
<path d="M20.625 13.0616V15.1241C20.625 15.4888 20.4801 15.8385 20.2223 16.0964C19.9644 16.3542 19.6147 16.4991 19.25 16.4991H9.96273C9.89933 16.4992 9.83714 16.4817 9.78306 16.4486C9.72897 16.4155 9.68509 16.3681 9.65627 16.3116C9.62745 16.2551 9.61482 16.1918 9.61976 16.1285C9.62471 16.0653 9.64705 16.0047 9.6843 15.9534L14.9763 8.67879C15.086 8.53309 15.135 8.35057 15.1131 8.16953C15.0911 7.98848 14.9999 7.82296 14.8586 7.7077C14.7859 7.65128 14.7026 7.61004 14.6136 7.58641C14.5247 7.56279 14.4319 7.55727 14.3408 7.57017C14.2496 7.58307 14.162 7.61414 14.0831 7.66153C14.0043 7.70892 13.9357 7.77167 13.8815 7.84606L7.69398 16.359C7.66155 16.4031 7.61905 16.4389 7.57002 16.4632C7.52099 16.4876 7.46685 16.4999 7.41211 16.4991H2.75C2.38533 16.4991 2.03559 16.3542 1.77773 16.0964C1.51987 15.8385 1.375 15.4888 1.375 15.1241V13.1587C1.375 13.0049 1.375 12.8519 1.38617 12.7007C1.39059 12.6125 1.42874 12.5294 1.49273 12.4686C1.55673 12.4078 1.64165 12.374 1.72992 12.3741H4.125C4.21925 12.3743 4.31253 12.3551 4.39906 12.3178C4.48558 12.2804 4.5635 12.2257 4.62798 12.1569C4.69245 12.0882 4.7421 12.0069 4.77384 11.9182C4.80559 11.8294 4.81874 11.7351 4.8125 11.6411C4.79729 11.464 4.71549 11.2992 4.58359 11.1801C4.45169 11.061 4.27951 10.9963 4.1018 10.9991H2.05563C2.00318 10.9991 1.95145 10.987 1.90438 10.9639C1.8573 10.9408 1.81614 10.9072 1.78404 10.8658C1.75195 10.8243 1.72976 10.776 1.71919 10.7247C1.70862 10.6733 1.70994 10.6202 1.72305 10.5694C2.7543 6.80191 5.9907 3.94106 9.9318 3.49848C9.97994 3.49327 10.0286 3.4983 10.0747 3.51322C10.1208 3.52815 10.1632 3.55265 10.1991 3.5851C10.2351 3.61755 10.2638 3.65724 10.2833 3.70155C10.3028 3.74586 10.3128 3.7938 10.3125 3.84223V6.1866C10.3123 6.28085 10.3315 6.37413 10.3688 6.46066C10.4062 6.54718 10.4609 6.6251 10.5297 6.68958C10.5984 6.75405 10.6797 6.8037 10.7684 6.83545C10.8572 6.86719 10.9515 6.88035 11.0455 6.8741C11.2226 6.8589 11.3874 6.77709 11.5065 6.64519C11.6256 6.51329 11.6903 6.34112 11.6875 6.1634V3.83793C11.6872 3.7895 11.6972 3.74156 11.7167 3.69725C11.7362 3.65294 11.7649 3.61326 11.8009 3.5808C11.8368 3.54835 11.8792 3.52385 11.9253 3.50893C11.9714 3.494 12.0201 3.48897 12.0682 3.49418C13.9923 3.71039 15.8067 4.50095 17.2751 5.7629C18.7435 7.02486 19.7979 8.69973 20.301 10.5694C20.3141 10.6203 20.3154 10.6734 20.3048 10.7249C20.2942 10.7763 20.2719 10.8246 20.2398 10.8661C20.2076 10.9076 20.1663 10.9411 20.1191 10.9642C20.0719 10.9873 20.0201 10.9992 19.9676 10.9991H17.8982C17.7208 10.9967 17.549 11.0616 17.4175 11.1807C17.286 11.2998 17.2044 11.4643 17.1892 11.6411C17.183 11.7351 17.1961 11.8294 17.2279 11.9182C17.2596 12.0069 17.3093 12.0882 17.3737 12.1569C17.4382 12.2257 17.5161 12.2804 17.6027 12.3178C17.6892 12.3551 17.7825 12.3743 17.8767 12.3741H20.2761C20.3652 12.374 20.4509 12.4086 20.515 12.4705C20.5791 12.5324 20.6167 12.6168 20.6198 12.7058C20.625 12.8236 20.625 12.9422 20.625 13.0616Z" fill="#CC9A06"/>
</g>
<defs>
<clipPath id="clip0_6016_19572">
<rect width="22" height="22" fill="white"/>
</clipPath>
</defs>
</svg>
