<svg width="26" height="26" viewBox="0 0 26 26" fill="none" xmlns="http://www.w3.org/2000/svg">
<path d="M2.57882 10.2831C2.83259 10.0295 3.17673 9.88693 3.53556 9.88693C3.89439 9.88693 4.23853 10.0295 4.49229 10.2831L11.1908 16.9816L17.8893 10.2831C18.1445 10.0366 18.4863 9.90024 18.8411 9.90333C19.196 9.90641 19.5354 10.0487 19.7863 10.2996C20.0372 10.5505 20.1795 10.8899 20.1826 11.2447C20.1856 11.5996 20.0493 11.9414 19.8027 12.1966L12.1475 19.8518C11.8938 20.1055 11.5496 20.248 11.1908 20.248C10.832 20.248 10.4878 20.1055 10.2341 19.8518L2.57882 12.1966C2.32513 11.9428 2.18262 11.5987 2.18262 11.2399C2.18262 10.881 2.32513 10.5369 2.57882 10.2831Z" fill="#E6AE06"/>
</svg>
