<svg width="30" height="24" viewBox="0 0 30 24" fill="none" xmlns="http://www.w3.org/2000/svg">
<path d="M19.0664 21.5469H10.9629V7.18621H19.0664V21.5469Z" fill="#FF5F00"/>
<path d="M18.5521 14.366C18.5521 17.2838 17.1629 19.8718 15.0278 21.5464C16.5969 22.7642 18.5777 23.5 20.7387 23.5C25.8582 23.5 30 19.4151 30 14.366C30 9.31686 25.8582 5.23199 20.7388 5.23199C18.5779 5.23199 16.597 5.96776 15.0278 7.18572C17.1629 8.8349 18.5521 11.4482 18.5521 14.366Z" fill="#EB001B"/>
<path d="M0.029726 14.366C0.029726 9.31698 4.17148 5.23199 9.29094 5.23199C11.4519 5.23199 13.4327 5.96776 15.002 7.18572C12.841 8.86021 11.4775 11.4482 11.4775 14.366C11.4775 17.2838 12.8668 19.8718 15.002 21.5464C13.4328 22.7642 11.4519 23.5 9.29094 23.5C4.17148 23.5 0.029726 19.3897 0.029726 14.366Z" fill="#F79E1B"/>
</svg>
