<svg width="61" height="60" viewBox="0 0 61 60" fill="none" xmlns="http://www.w3.org/2000/svg">
<g clip-path="url(#clip0_5427_8040)">
<path d="M16.9165 31.25C13.4703 31.25 10.6665 28.4462 10.6665 25C10.6665 21.5538 13.4703 18.75 16.9165 18.75C20.3628 18.75 23.1665 21.5538 23.1665 25C23.1665 28.4462 20.3628 31.25 16.9165 31.25ZM16.9165 21.25C14.849 21.25 13.1665 22.9325 13.1665 25C13.1665 27.0675 14.849 28.75 16.9165 28.75C18.984 28.75 20.6665 27.0675 20.6665 25C20.6665 22.9325 18.984 21.25 16.9165 21.25ZM21.9165 60H11.9165C11.2265 60 10.6665 59.4412 10.6665 58.75V35C10.6665 34.3088 11.2265 33.75 11.9165 33.75H21.9165C22.6065 33.75 23.1665 34.3088 23.1665 35V58.75C23.1665 59.4412 22.6065 60 21.9165 60ZM13.1665 57.5H20.6665V36.25H13.1665V57.5Z" fill="#202020"/>
<path d="M28.1665 45H21.9165C21.2265 45 20.6665 44.4412 20.6665 43.75V38.75C20.6665 38.0588 21.2265 37.5 21.9165 37.5H28.1665C28.8565 37.5 29.4165 38.0588 29.4165 38.75V43.75C29.4165 44.4412 28.8565 45 28.1665 45ZM23.1665 42.5H26.9165V40H23.1665V42.5ZM6.9165 60H1.9165C1.2265 60 0.666504 59.4412 0.666504 58.75V24.1738C0.666504 23.4825 1.2265 22.9238 1.9165 22.9238H6.9165C7.6065 22.9238 8.1665 23.4825 8.1665 24.1738V58.75C8.1665 59.4412 7.6065 60 6.9165 60ZM3.1665 57.5H5.6665V25.4238H3.1665V57.5ZM44.4165 31.25C40.9703 31.25 38.1665 28.4462 38.1665 25C38.1665 21.5538 40.9703 18.75 44.4165 18.75C47.8628 18.75 50.6665 21.5538 50.6665 25C50.6665 28.4462 47.8628 31.25 44.4165 31.25ZM44.4165 21.25C42.349 21.25 40.6665 22.9325 40.6665 25C40.6665 27.0675 42.349 28.75 44.4165 28.75C46.484 28.75 48.1665 27.0675 48.1665 25C48.1665 22.9325 46.484 21.25 44.4165 21.25ZM49.4165 60H39.4165C38.7265 60 38.1665 59.4412 38.1665 58.75V35C38.1665 34.3088 38.7265 33.75 39.4165 33.75H49.4165C50.1065 33.75 50.6665 34.3088 50.6665 35V58.75C50.6665 59.4412 50.1065 60 49.4165 60ZM40.6665 57.5H48.1665V36.25H40.6665V57.5Z" fill="#202020"/>
<path d="M39.4165 45.0001H33.1665C32.4765 45.0001 31.9165 44.4413 31.9165 43.7501V38.7501C31.9165 38.0588 32.4765 37.5001 33.1665 37.5001H39.4165C40.1065 37.5001 40.6665 38.0588 40.6665 38.7501V43.7501C40.6665 44.4413 40.1065 45.0001 39.4165 45.0001ZM34.4165 42.5001H38.1665V40.0001H34.4165V42.5001ZM59.4165 60.0001H54.4165C53.7265 60.0001 53.1665 59.4413 53.1665 58.7501V24.1738C53.1665 23.4826 53.7265 22.9238 54.4165 22.9238H59.4165C60.1065 22.9238 60.6665 23.4826 60.6665 24.1738V58.7501C60.6665 59.4413 60.1065 60.0001 59.4165 60.0001ZM55.6665 57.5001H58.1665V25.4238H55.6665V57.5001Z" fill="#202020"/>
<path d="M39.4164 49.9994H21.9164C21.2264 49.9994 20.6664 49.4406 20.6664 48.7494V43.7494C20.6664 43.0581 21.2264 42.4994 21.9164 42.4994H39.4164C40.1064 42.4994 40.6664 43.0581 40.6664 43.7494V48.7494C40.6664 49.4406 40.1064 49.9994 39.4164 49.9994ZM23.1664 47.4994H38.1664V44.9994H23.1664V47.4994ZM34.4164 22.4994H26.9164C26.2264 22.4994 25.6664 21.9406 25.6664 21.2494V20.6144C25.6664 19.4906 25.1339 18.4144 24.1651 17.5869C21.8351 15.5931 20.5626 12.6931 20.6726 9.63187C20.8601 4.40812 25.2676 0.0868658 30.4964 0.000615797C33.2251 -0.0606342 35.7514 0.975616 37.6776 2.87062C39.6051 4.76562 40.6664 7.29687 40.6664 9.99936C40.6664 12.8681 39.4276 15.6006 37.2689 17.4981C36.2351 18.4069 35.6664 19.5719 35.6664 20.7806V21.2494C35.6664 21.9406 35.1064 22.4994 34.4164 22.4994ZM28.1339 19.9994H33.2139C33.4151 18.3556 34.2514 16.8219 35.6176 15.6206C37.2376 14.1969 38.1664 12.1494 38.1664 9.99936C38.1664 7.97312 37.3701 6.07312 35.9264 4.65312C34.4826 3.23187 32.5689 2.46187 30.5389 2.50062C26.6176 2.56562 23.3126 5.80562 23.1714 9.72187C23.0889 12.0181 24.0426 14.1919 25.7901 15.6869C27.1314 16.8344 27.9639 18.3794 28.1339 19.9994Z" fill="#202020"/>
<path d="M34.4165 27.5H26.9165C26.2265 27.5 25.6665 26.9412 25.6665 26.25V21.25C25.6665 20.5588 26.2265 20 26.9165 20H34.4165C35.1065 20 35.6665 20.5588 35.6665 21.25V26.25C35.6665 26.9412 35.1065 27.5 34.4165 27.5ZM28.1665 25H33.1665V22.5H28.1665V25Z" fill="#202020"/>
</g>
<defs>
<clipPath id="clip0_5427_8040">
<rect width="60" height="60" fill="white" transform="translate(0.666504)"/>
</clipPath>
</defs>
</svg>
