<svg width="61" height="60" viewBox="0 0 61 60" fill="none" xmlns="http://www.w3.org/2000/svg">
<path d="M50.1875 18.75H8.00002C7.75138 18.75 7.51292 18.6512 7.3371 18.4754C7.16129 18.2996 7.06252 18.0612 7.06252 17.8125V15.9375C7.06105 15.6929 7.15525 15.4574 7.32502 15.2813L10.0625 12.4688C10.1504 12.3791 10.2555 12.3079 10.3715 12.2596C10.4874 12.2113 10.6119 12.1868 10.7375 12.1875H44.7219C44.8718 12.1869 45.0197 12.2223 45.1531 12.2906L50.6188 15.1031C50.7716 15.1823 50.8997 15.3021 50.989 15.4493C51.0783 15.5964 51.1254 15.7654 51.125 15.9375V17.8125C51.125 18.0612 51.0262 18.2996 50.8504 18.4754C50.6746 18.6512 50.4362 18.75 50.1875 18.75ZM8.93752 16.875H49.25V16.5094L44.4969 14.0625H11.1313L8.93752 16.3219V16.875Z" fill="#202020"/>
<path d="M20.1125 14.0625H14.5625C14.3139 14.0625 14.0754 13.9637 13.8996 13.7879C13.7238 13.6121 13.625 13.3737 13.625 13.125V7.50001C13.625 7.25137 13.7238 7.01291 13.8996 6.8371C14.0754 6.66128 14.3139 6.56251 14.5625 6.56251H16.4375C16.5935 6.56176 16.7472 6.59995 16.8847 6.67361C17.0222 6.74728 17.1392 6.8541 17.225 6.98439L20.9 12.6094C20.9823 12.7519 21.0256 12.9136 21.0256 13.0781C21.0256 13.2427 20.9823 13.4044 20.9 13.5469C20.8259 13.6946 20.714 13.8201 20.5757 13.9107C20.4374 14.0012 20.2776 14.0536 20.1125 14.0625ZM15.5 12.1875H18.3781L15.9312 8.43751H15.5V12.1875ZM20.1875 48.75H14.5625C14.3139 48.75 14.0754 48.6512 13.8996 48.4754C13.7238 48.2996 13.625 48.0611 13.625 47.8125V17.8125C13.625 17.5639 13.7238 17.3254 13.8996 17.1496C14.0754 16.9738 14.3139 16.875 14.5625 16.875H20.1875C20.4361 16.875 20.6746 16.9738 20.8504 17.1496C21.0262 17.3254 21.125 17.5639 21.125 17.8125V47.8125C21.125 48.0611 21.0262 48.2996 20.8504 48.4754C20.6746 48.6512 20.4361 48.75 20.1875 48.75ZM15.5 46.875H19.25V18.75H15.5V46.875ZM53 53.4375H30.5C30.2514 53.4375 30.0129 53.3387 29.8371 53.1629C29.6613 52.9871 29.5625 52.7486 29.5625 52.5V40.3125C29.5625 40.0639 29.6613 39.8254 29.8371 39.6496C30.0129 39.4738 30.2514 39.375 30.5 39.375H40.8125V34.6875C40.8125 34.4389 40.9113 34.2004 41.0871 34.0246C41.2629 33.8488 41.5014 33.75 41.75 33.75H53C53.2486 33.75 53.4871 33.8488 53.6629 34.0246C53.8387 34.2004 53.9375 34.4389 53.9375 34.6875V52.5C53.9375 52.7486 53.8387 52.9871 53.6629 53.1629C53.4871 53.3387 53.2486 53.4375 53 53.4375ZM31.4375 51.5625H52.0625V35.625H42.6875V40.3125C42.6875 40.5611 42.5887 40.7996 42.4129 40.9754C42.2371 41.1512 41.9986 41.25 41.75 41.25H31.4375V51.5625Z" fill="#202020"/>
<path d="M32.375 41.25C32.1264 41.25 31.8879 41.1512 31.7121 40.9754C31.5363 40.7996 31.4375 40.5611 31.4375 40.3125V31.875C31.4375 31.6264 31.5363 31.3879 31.7121 31.2121C31.8879 31.0363 32.1264 30.9375 32.375 30.9375C32.6236 30.9375 32.8621 31.0363 33.0379 31.2121C33.2137 31.3879 33.3125 31.6264 33.3125 31.875V40.3125C33.3125 40.5611 33.2137 40.7996 33.0379 40.9754C32.8621 41.1512 32.6236 41.25 32.375 41.25ZM41.75 41.25C41.5014 41.25 41.2629 41.1512 41.0871 40.9754C40.9113 40.7996 40.8125 40.5611 40.8125 40.3125V27.1875C40.8125 26.9389 40.9113 26.7004 41.0871 26.5246C41.2629 26.3488 41.5014 26.25 41.75 26.25C41.9986 26.25 42.2371 26.3488 42.4129 26.5246C42.5887 26.7004 42.6875 26.9389 42.6875 27.1875V40.3125C42.6875 40.5611 42.5887 40.7996 42.4129 40.9754C42.2371 41.1512 41.9986 41.25 41.75 41.25ZM51.125 35.625C50.8764 35.625 50.6379 35.5262 50.4621 35.3504C50.2863 35.1746 50.1875 34.9361 50.1875 34.6875V25.3125C50.1875 25.0639 50.2863 24.8254 50.4621 24.6496C50.6379 24.4738 50.8764 24.375 51.125 24.375C51.3736 24.375 51.6121 24.4738 51.7879 24.6496C51.9637 24.8254 52.0625 25.0639 52.0625 25.3125V34.6875C52.0625 34.9361 51.9637 35.1746 51.7879 35.3504C51.6121 35.5262 51.3736 35.625 51.125 35.625Z" fill="#202020"/>
<path d="M41.75 37.5H32.375C32.1264 37.5 31.8879 37.4012 31.7121 37.2254C31.5363 37.0496 31.4375 36.8111 31.4375 36.5625C31.4375 36.3139 31.5363 36.0754 31.7121 35.8996C31.8879 35.7238 32.1264 35.625 32.375 35.625H41.75C41.9986 35.625 42.2371 35.7238 42.4129 35.8996C42.5887 36.0754 42.6875 36.3139 42.6875 36.5625C42.6875 36.8111 42.5887 37.0496 42.4129 37.2254C42.2371 37.4012 41.9986 37.5 41.75 37.5ZM51.125 31.875H41.75C41.5014 31.875 41.2629 31.7762 41.0871 31.6004C40.9113 31.4246 40.8125 31.1861 40.8125 30.9375C40.8125 30.6889 40.9113 30.4504 41.0871 30.2746C41.2629 30.0988 41.5014 30 41.75 30H51.125C51.3736 30 51.6121 30.0988 51.7879 30.2746C51.9637 30.4504 52.0625 30.6889 52.0625 30.9375C52.0625 31.1861 51.9637 31.4246 51.7879 31.6004C51.6121 31.7762 51.3736 31.875 51.125 31.875Z" fill="#202020"/>
<path d="M37.0625 41.25C36.8139 41.25 36.5754 41.1512 36.3996 40.9754C36.2238 40.7996 36.125 40.5611 36.125 40.3125V33.75C36.125 33.5014 36.2238 33.2629 36.3996 33.0871C36.5754 32.9113 36.8139 32.8125 37.0625 32.8125C37.3111 32.8125 37.5496 32.9113 37.7254 33.0871C37.9012 33.2629 38 33.5014 38 33.75V40.3125C38 40.5611 37.9012 40.7996 37.7254 40.9754C37.5496 41.1512 37.3111 41.25 37.0625 41.25ZM46.4375 35.625C46.1889 35.625 45.9504 35.5262 45.7746 35.3504C45.5988 35.1746 45.5 34.9361 45.5 34.6875V28.125C45.5 27.8764 45.5988 27.6379 45.7746 27.4621C45.9504 27.2863 46.1889 27.1875 46.4375 27.1875C46.6861 27.1875 46.9246 27.2863 47.1004 27.4621C47.2762 27.6379 47.375 27.8764 47.375 28.125V34.6875C47.375 34.9361 47.2762 35.1746 47.1004 35.3504C46.9246 35.5262 46.6861 35.625 46.4375 35.625ZM38 30H24.875C24.6264 30 24.3879 29.9012 24.2121 29.7254C24.0363 29.5496 23.9375 29.3111 23.9375 29.0625V25.3125C23.9375 25.0639 24.0363 24.8254 24.2121 24.6496C24.3879 24.4738 24.6264 24.375 24.875 24.375H38C38.2486 24.375 38.4871 24.4738 38.6629 24.6496C38.8387 24.8254 38.9375 25.0639 38.9375 25.3125V29.0625C38.9375 29.3111 38.8387 29.5496 38.6629 29.7254C38.4871 29.9012 38.2486 30 38 30ZM25.8125 28.125H37.0625V26.25H25.8125V28.125Z" fill="#202020"/>
<path d="M31.4375 26.25C31.1889 26.25 30.9504 26.1512 30.7746 25.9754C30.5988 25.7996 30.5 25.5611 30.5 25.3125V17.8125C30.5 17.5639 30.5988 17.3254 30.7746 17.1496C30.9504 16.9738 31.1889 16.875 31.4375 16.875C31.6861 16.875 31.9246 16.9738 32.1004 17.1496C32.2762 17.3254 32.375 17.5639 32.375 17.8125V25.3125C32.375 25.5611 32.2762 25.7996 32.1004 25.9754C31.9246 26.1512 31.6861 26.25 31.4375 26.25ZM23 53.4375H11.75C11.5014 53.4375 11.2629 53.3387 11.0871 53.1629C10.9113 52.9871 10.8125 52.7486 10.8125 52.5V47.8125C10.8125 47.5639 10.9113 47.3254 11.0871 47.1496C11.2629 46.9738 11.5014 46.875 11.75 46.875H23C23.2486 46.875 23.4871 46.9738 23.6629 47.1496C23.8387 47.3254 23.9375 47.5639 23.9375 47.8125V52.5C23.9375 52.7486 23.8387 52.9871 23.6629 53.1629C23.4871 53.3387 23.2486 53.4375 23 53.4375ZM12.6875 51.5625H22.0625V48.75H12.6875V51.5625Z" fill="#202020"/>
<path d="M14.5626 47.8124C14.4392 47.8131 14.3169 47.7895 14.2027 47.7428C14.0884 47.6962 13.9845 47.6274 13.8969 47.5406C13.8091 47.4534 13.7393 47.3497 13.6917 47.2355C13.6441 47.1212 13.6196 46.9987 13.6196 46.8749C13.6196 46.7512 13.6441 46.6286 13.6917 46.5144C13.7393 46.4001 13.8091 46.2965 13.8969 46.2093L19.5219 40.5843C19.6985 40.4078 19.9379 40.3086 20.1876 40.3086C20.4372 40.3086 20.6767 40.4078 20.8532 40.5843C21.0297 40.7608 21.1289 41.0003 21.1289 41.2499C21.1289 41.4996 21.0297 41.739 20.8532 41.9156L15.2282 47.5406C15.1406 47.6274 15.0367 47.6962 14.9225 47.7428C14.8083 47.7895 14.6859 47.8131 14.5626 47.8124Z" fill="#202020"/>
<path d="M20.1874 42.1874C20.064 42.1881 19.9417 42.1645 19.8275 42.1178C19.7133 42.0712 19.6094 42.0024 19.5218 41.9156L13.8968 36.2906C13.7203 36.114 13.6211 35.8746 13.6211 35.6249C13.6211 35.3753 13.7203 35.1358 13.8968 34.9593C14.0733 34.7828 14.3128 34.6836 14.5624 34.6836C14.8121 34.6836 15.0515 34.7828 15.2281 34.9593L20.8531 40.5843C20.9409 40.6715 21.0107 40.7751 21.0583 40.8894C21.1059 41.0036 21.1304 41.1262 21.1304 41.2499C21.1304 41.3737 21.1059 41.4962 21.0583 41.6105C21.0107 41.7247 20.9409 41.8284 20.8531 41.9156C20.7655 42.0024 20.6616 42.0712 20.5473 42.1178C20.4331 42.1645 20.3108 42.1881 20.1874 42.1874Z" fill="#202020"/>
<path d="M14.5626 36.5624C14.4392 36.5631 14.3169 36.5395 14.2027 36.4928C14.0884 36.4462 13.9845 36.3774 13.8969 36.2906C13.8091 36.2034 13.7393 36.0997 13.6917 35.9855C13.6441 35.8712 13.6196 35.7487 13.6196 35.6249C13.6196 35.5012 13.6441 35.3786 13.6917 35.2644C13.7393 35.1501 13.8091 35.0465 13.8969 34.9593L19.5219 29.3343C19.6985 29.1578 19.9379 29.0586 20.1876 29.0586C20.4372 29.0586 20.6767 29.1578 20.8532 29.3343C21.0297 29.5108 21.1289 29.7503 21.1289 29.9999C21.1289 30.2496 21.0297 30.489 20.8532 30.6656L15.2282 36.2906C15.1406 36.3774 15.0367 36.4462 14.9225 36.4928C14.8083 36.5395 14.6859 36.5631 14.5626 36.5624ZM14.5626 25.3124C14.4392 25.3131 14.3169 25.2895 14.2027 25.2428C14.0884 25.1962 13.9845 25.1274 13.8969 25.0406C13.8091 24.9534 13.7393 24.8497 13.6917 24.7355C13.6441 24.6212 13.6196 24.4987 13.6196 24.3749C13.6196 24.2512 13.6441 24.1286 13.6917 24.0144C13.7393 23.9001 13.8091 23.7965 13.8969 23.7093L19.5219 18.0843C19.6985 17.9078 19.9379 17.8086 20.1876 17.8086C20.4372 17.8086 20.6767 17.9078 20.8532 18.0843C21.0297 18.2608 21.1289 18.5003 21.1289 18.7499C21.1289 18.9996 21.0297 19.239 20.8532 19.4156L15.2282 25.0406C15.1406 25.1274 15.0367 25.1962 14.9225 25.2428C14.8083 25.2895 14.6859 25.3131 14.5626 25.3124Z" fill="#202020"/>
<path d="M20.1874 30.9374C20.064 30.9381 19.9417 30.9145 19.8275 30.8678C19.7133 30.8212 19.6094 30.7524 19.5218 30.6656L13.8968 25.0406C13.7203 24.864 13.6211 24.6246 13.6211 24.3749C13.6211 24.1253 13.7203 23.8858 13.8968 23.7093C14.0733 23.5328 14.3128 23.4336 14.5624 23.4336C14.8121 23.4336 15.0515 23.5328 15.2281 23.7093L20.8531 29.3343C20.9409 29.4215 21.0107 29.5251 21.0583 29.6394C21.1059 29.7536 21.1304 29.8762 21.1304 29.9999C21.1304 30.1237 21.1059 30.2462 21.0583 30.3605C21.0107 30.4747 20.9409 30.5784 20.8531 30.6656C20.7655 30.7524 20.6616 30.8212 20.5473 30.8678C20.4331 30.9145 20.3108 30.9381 20.1874 30.9374Z" fill="#202020"/>
</svg>
