<svg width="60" height="60" viewBox="0 0 60 60" fill="none" xmlns="http://www.w3.org/2000/svg">
<path d="M56.5837 18.3886L55.275 17.1005C54.9 16.7255 54.3806 16.5117 53.85 16.5117H44.2406V16.088C44.2406 13.658 42.495 11.5992 40.0837 11.1961L37.1287 10.7161C36.6187 9.08297 35.1112 7.88672 33.3131 7.88672H14.8856C8.47688 7.88672 3.26062 13.1011 3.26062 19.5098C3.26062 24.2798 6.15 28.3823 10.2675 30.173L6.75937 42.8386H6.28875C4.44938 42.8386 2.95312 44.3348 2.95312 46.1742V48.7748C2.95312 50.6123 4.44938 52.1086 6.28875 52.1086H24.7238C26.5631 52.1086 28.0594 50.6123 28.0594 48.7748V46.1742C28.0594 44.3348 26.5631 42.8386 24.7238 42.8386H21.465L22.6181 38.6705H26.0831C26.7975 38.6705 27.465 38.3555 27.9112 37.8042C28.3575 37.2511 28.53 36.533 28.3819 35.8411L27.4294 31.133H33.3131C35.1112 31.133 36.6206 29.9367 37.1287 28.3017L40.0875 27.8217C42.4931 27.4186 44.2387 25.3598 44.2387 22.9298V22.508H53.8481C54.3919 22.508 54.9112 22.2998 55.2731 21.9361L56.5856 20.6236C57.2044 20.0105 57.2044 19.0092 56.5837 18.3886ZM26.4656 46.1761V48.7767C26.4656 49.7367 25.6838 50.5186 24.7238 50.5186H6.28875C5.32875 50.5186 4.54687 49.7367 4.54687 48.7767V46.1761C4.54687 45.2142 5.32875 44.4323 6.28875 44.4323H24.7238C25.6838 44.4323 26.4656 45.2142 26.4656 46.1761ZM8.415 42.8405L11.7769 30.6998C12.7688 30.9755 13.8075 31.1348 14.8856 31.1348H23.0475L19.8113 42.8405H8.415ZM26.82 36.1655C26.8875 36.4767 26.7544 36.698 26.6719 36.8011C26.5875 36.9061 26.3981 37.0786 26.0812 37.0786H23.0569L24.7013 31.1348H25.8056L26.82 36.1655ZM35.7356 27.1186C35.7356 28.4536 34.6481 29.5411 33.3131 29.5411H14.8856C9.35438 29.5411 4.85437 25.0411 4.85437 19.5098C4.85437 13.9786 9.35438 9.47859 14.8856 9.47859H33.3131C34.6481 9.47859 35.7356 10.5661 35.7356 11.9011V27.1186ZM42.6469 22.9317C42.6469 24.5798 41.46 25.9786 39.8288 26.2523L37.3275 26.6573V12.3623L39.825 12.7673C41.4337 13.0392 42.6469 14.4661 42.6469 16.088V22.9317ZM54.15 20.813C54.0844 20.8786 53.9719 20.918 53.85 20.918H44.2406V18.1055H53.85C53.9587 18.1055 54.0731 18.1523 54.1537 18.233L55.4625 19.5005L54.15 20.813Z" fill="#202020"/>
<path d="M19.1963 14.0957H15.1481C12.4519 14.0957 10.1419 15.922 9.65439 18.4382C9.34127 20.0545 9.75189 21.6988 10.7869 22.9532C11.8219 24.2076 13.3444 24.9276 14.9663 24.9276H19.1963C20.5575 24.9276 21.6638 23.8213 21.6638 22.4601V16.5632C21.6638 15.202 20.5575 14.0957 19.1963 14.0957ZM20.0719 22.4601C20.0719 22.942 19.68 23.3357 19.1963 23.3357H14.9663C13.8225 23.3357 12.7463 22.8276 12.015 21.9388C11.2856 21.0538 10.995 19.8895 11.2181 18.742C11.5631 16.9738 13.215 15.6895 15.1481 15.6895H19.1963C19.6781 15.6895 20.0719 16.0813 20.0719 16.5632V22.4601ZM30.2925 14.0957H25.5469C25.1063 14.0957 24.75 14.452 24.75 14.8926C24.75 15.3332 25.1063 15.6895 25.5469 15.6895H30.2925C30.7331 15.6895 31.0894 15.3332 31.0894 14.8926C31.0894 14.452 30.7331 14.0957 30.2925 14.0957ZM30.2925 18.7138H25.5469C25.1063 18.7138 24.75 19.0701 24.75 19.5107C24.75 19.9513 25.1063 20.3076 25.5469 20.3076H30.2925C30.7331 20.3076 31.0894 19.9513 31.0894 19.5107C31.0894 19.0701 30.7331 18.7138 30.2925 18.7138ZM30.2925 23.3338H25.5469C25.1063 23.3338 24.75 23.6901 24.75 24.1307C24.75 24.5713 25.1063 24.9276 25.5469 24.9276H30.2925C30.7331 24.9276 31.0894 24.5713 31.0894 24.1307C31.0894 23.6901 30.7331 23.3338 30.2925 23.3338Z" fill="#202020"/>
</svg>
