<svg width="61" height="60" viewBox="0 0 61 60" fill="none" xmlns="http://www.w3.org/2000/svg">
<path d="M56.6429 20.7656C56.5004 20.6833 56.3387 20.64 56.1741 20.64C56.0096 20.64 55.8479 20.6833 55.7054 20.7656L42.0835 27.5438V25.3125C42.0835 25.0639 41.9847 24.8254 41.8089 24.6496C41.6331 24.4738 41.3946 24.375 41.146 24.375H5.521C5.27236 24.375 5.0339 24.4738 4.85808 24.6496C4.68227 24.8254 4.5835 25.0639 4.5835 25.3125V47.8125C4.5835 48.0611 4.68227 48.2996 4.85808 48.4754C5.0339 48.6512 5.27236 48.75 5.521 48.75H41.146C41.3946 48.75 41.6331 48.6512 41.8089 48.4754C41.9847 48.2996 42.0835 48.0611 42.0835 47.8125V45.5813L55.7241 52.4063C55.8675 52.4785 56.0271 52.5128 56.1876 52.5056C56.348 52.4985 56.504 52.4503 56.6404 52.3656C56.7769 52.2809 56.8893 52.1626 56.9669 52.0219C57.0445 51.8813 57.0846 51.7231 57.0835 51.5625V21.5625C57.0838 21.4032 57.0435 21.2464 56.9664 21.107C56.8893 20.9676 56.778 20.8501 56.6429 20.7656ZM40.2085 46.875H6.4585V26.25H40.2085V46.875ZM55.2085 50.0438L42.0835 43.4813V29.6438L55.2085 23.0813V50.0438ZM13.021 23.4375C14.6898 23.4375 16.3211 22.9427 17.7086 22.0155C19.0962 21.0884 20.1776 19.7706 20.8162 18.2289C21.4548 16.6871 21.6219 14.9906 21.2964 13.3539C20.9708 11.7172 20.1672 10.2138 18.9872 9.03379C17.8072 7.85378 16.3038 7.05019 14.6671 6.72463C13.0304 6.39907 11.3339 6.56616 9.7921 7.20477C8.25035 7.84338 6.9326 8.92484 6.00547 10.3124C5.07835 11.6999 4.5835 13.3312 4.5835 15C4.5835 17.2378 5.47244 19.3839 7.05478 20.9662C8.63712 22.5486 10.7832 23.4375 13.021 23.4375ZM13.021 8.4375C14.3189 8.4375 15.5877 8.82239 16.6669 9.54348C17.7461 10.2646 18.5873 11.2895 19.084 12.4886C19.5807 13.6878 19.7106 15.0073 19.4574 16.2803C19.2042 17.5533 18.5792 18.7226 17.6614 19.6404C16.7436 20.5582 15.5743 21.1832 14.3013 21.4364C13.0283 21.6896 11.7088 21.5597 10.5096 21.063C9.3105 20.5663 8.28557 19.7251 7.56448 18.6459C6.84338 17.5667 6.4585 16.2979 6.4585 15C6.4585 13.2595 7.1499 11.5903 8.38061 10.3596C9.61132 9.12891 11.2805 8.4375 13.021 8.4375Z" fill="#202020"/>
<path d="M33.646 23.4375C35.3148 23.4375 36.9461 22.9427 38.3336 22.0155C39.7212 21.0884 40.8026 19.7706 41.4412 18.2289C42.0798 16.6871 42.2469 14.9906 41.9214 13.3539C41.5958 11.7172 40.7922 10.2138 39.6122 9.03379C38.4322 7.85378 36.9288 7.05019 35.2921 6.72463C33.6554 6.39907 31.9589 6.56616 30.4171 7.20477C28.8754 7.84338 27.5576 8.92484 26.6305 10.3124C25.7033 11.6999 25.2085 13.3312 25.2085 15C25.2085 17.2378 26.0974 19.3839 27.6798 20.9662C29.2621 22.5486 31.4082 23.4375 33.646 23.4375ZM33.646 8.4375C34.9439 8.4375 36.2127 8.82239 37.2919 9.54348C38.3711 10.2646 39.2123 11.2895 39.709 12.4886C40.2057 13.6878 40.3356 15.0073 40.0824 16.2803C39.8292 17.5533 39.2042 18.7226 38.2864 19.6404C37.3686 20.5582 36.1993 21.1832 34.9263 21.4364C33.6533 21.6896 32.3338 21.5597 31.1346 21.063C29.9355 20.5663 28.9106 19.7251 28.1895 18.6459C27.4684 17.5667 27.0835 16.2979 27.0835 15C27.0835 13.2595 27.7749 11.5903 29.0056 10.3596C30.2363 9.12891 31.9055 8.4375 33.646 8.4375Z" fill="#202020"/>
<path d="M13.9585 30H10.2085V31.875H13.9585V30Z" fill="#202020"/>
<path d="M17.7085 30H15.8335V31.875H17.7085V30Z" fill="#202020"/>
<path d="M36.4585 41.25H10.2085V43.125H36.4585V41.25Z" fill="#202020"/>
</svg>
