<svg width="61" height="60" viewBox="0 0 61 60" fill="none" xmlns="http://www.w3.org/2000/svg">
<path d="M5.521 59.0625H39.6554L47.7085 51.0094V0.9375H5.521V59.0625ZM40.2085 55.8656V51.5625H44.5116L40.2085 55.8656ZM7.396 2.8125H45.8335V49.6875H38.3335V57.1875H7.396V2.8125ZM15.8335 27.1875H13.9585V20.625H15.8335V27.1875ZM20.521 27.1875H18.646V12.1875H20.521V27.1875ZM25.2085 27.1875H23.3335V15.9375H25.2085V27.1875ZM29.896 27.1875H28.021V6.5625H29.896V27.1875ZM34.5835 27.1875H32.7085V9.375H34.5835V27.1875ZM39.271 27.1875H37.396V15.9375H39.271V27.1875ZM27.0085 37.5H27.0835V36.5625C27.0835 34.822 26.3921 33.1528 25.1614 31.9221C23.9307 30.6914 22.2615 30 20.521 30H19.5835V30.075C18.3771 30.2474 17.2425 30.7524 16.3069 31.5333C15.3712 32.3143 14.6716 33.3403 14.2862 34.4964C13.9009 35.6526 13.8451 36.8933 14.1251 38.0793C14.4051 39.2654 15.0099 40.3501 15.8716 41.2119C16.7334 42.0736 17.8181 42.6784 19.0042 42.9584C20.1902 43.2384 21.4309 43.1826 22.587 42.7973C23.7432 42.4119 24.7692 41.7123 25.5502 40.7766C26.3311 39.841 26.8361 38.7064 27.0085 37.5ZM20.521 41.25C19.3585 41.2512 18.2371 40.8204 17.3744 40.0412C16.5117 39.2621 15.9693 38.1902 15.8525 37.0336C15.7357 35.877 16.0528 34.7183 16.7422 33.7824C17.4317 32.8464 18.4443 32.2001 19.5835 31.9687V37.5H25.1147C24.8986 38.5588 24.3233 39.5104 23.4862 40.1937C22.6491 40.8771 21.6016 41.2502 20.521 41.25ZM21.4585 35.625V31.9687C21.7204 32.027 21.9774 32.1053 22.2272 32.2031L22.4522 32.3062C22.6341 32.3902 22.8095 32.4874 22.9772 32.5969L23.1835 32.7281C23.624 33.0383 24.0077 33.422 24.3179 33.8625L24.4491 34.0687C24.5586 34.2365 24.6557 34.4119 24.7397 34.5938C24.7702 34.6705 24.8046 34.7456 24.8429 34.8187C24.9407 35.0686 25.019 35.3256 25.0772 35.5875H21.4585V35.625ZM28.9585 30H39.271V31.875H28.9585V30ZM28.9585 34.6875H39.271V36.5625H28.9585V34.6875ZM39.271 41.25H28.9585V39.375H39.271V41.25ZM13.9585 50.625H19.5835V45H13.9585V50.625ZM15.8335 46.875H17.7085V48.75H15.8335V46.875ZM22.396 50.625H28.021V45H22.396V50.625ZM24.271 46.875H26.146V48.75H24.271V46.875ZM30.8335 50.625H36.4585V45H30.8335V50.625ZM32.7085 46.875H34.5835V48.75H32.7085V46.875ZM51.4585 6.5625V47.8125C51.6085 50.7469 52.4897 53.4375 54.271 53.4375C56.0522 53.4375 56.9054 50.7469 57.0835 47.8125V6.5625H51.4585ZM54.271 51.4781C53.6602 50.3526 53.3381 49.0931 53.3335 47.8125H55.2085C55.2039 49.0931 54.8818 50.3526 54.271 51.4781ZM55.2085 45.9375H53.3335V13.125H55.2085V45.9375ZM55.2085 11.25H53.3335V8.4375H55.2085V11.25Z" fill="#202020"/>
</svg>
