<svg width="61" height="60" viewBox="0 0 61 60" fill="none" xmlns="http://www.w3.org/2000/svg">
<path d="M54.7029 41.3943C51.6087 38.2734 47.4864 36.5547 43.0951 36.5547H40.847C40.6762 36.5547 40.5078 36.5948 40.3554 36.6718C40.2029 36.7487 40.0707 36.8604 39.9693 36.9978C38.0596 39.5848 35.0032 41.1293 31.7931 41.1293H29.4527C26.2426 41.1293 23.1861 39.5848 21.2763 36.9977C21.1749 36.8603 21.0427 36.7487 20.8902 36.6717C20.7378 36.5948 20.5694 36.5547 20.3987 36.5547H18.3147C13.9165 36.5547 9.767 38.2713 6.63052 41.3886C3.48794 44.5118 1.75732 48.6507 1.75732 53.0431V57.9101C1.75732 58.5125 2.24583 59.001 2.84823 59.001H58.3972C58.9996 59.001 59.4881 58.5125 59.4881 57.9101V53.0431C59.4881 48.6436 57.7887 44.5068 54.7029 41.3943ZM57.3063 56.8192H3.93914V53.0431C3.93914 49.2362 5.44121 45.6467 8.16849 42.9362C10.8935 40.2281 14.4967 38.7366 18.3147 38.7366H19.8639C22.1966 41.6112 25.7398 43.3112 29.4526 43.3112H31.793C35.5058 43.3112 39.0491 41.6112 41.3816 38.7366H43.0951C50.9313 38.7366 57.3064 45.1545 57.3064 53.0432V56.8192H57.3063Z" fill="#202020"/>
<path d="M11.1829 10.0056L17.1392 12.1615V18.3683C17.1392 18.4742 17.1472 18.5772 17.1602 18.6785V24.4531C17.1602 31.2553 22.6943 36.7893 29.4964 36.7893H31.8395C38.6418 36.7893 44.1757 31.2552 44.1757 24.4531V18.5155C44.1757 18.2737 44.1672 18.0213 44.1517 17.765V12.159L45.7948 11.5604V16.8342C45.7948 17.4366 46.2834 17.9251 46.8858 17.9251C47.4882 17.9251 47.9767 17.4366 47.9767 16.8342V10.7655L50.0649 10.0047C50.2755 9.92816 50.4573 9.78857 50.5858 9.60497C50.7142 9.42137 50.783 9.20266 50.7828 8.97858C50.7825 8.75451 50.7133 8.53595 50.5845 8.35262C50.4556 8.16929 50.2734 8.03009 50.0627 7.95395L30.932 1.02995C30.6913 0.942844 30.4277 0.943153 30.1873 1.03082L11.1808 7.95482C10.9703 8.0314 10.7884 8.17097 10.6599 8.35457C10.5315 8.53817 10.4627 8.75687 10.4629 8.98095C10.4631 9.20502 10.5324 9.42359 10.6612 9.60693C10.79 9.79026 10.9722 9.92947 11.1829 10.0056ZM30.3138 16.9299C30.4338 16.9733 30.5593 16.9951 30.685 16.9951C30.6889 16.9951 30.6928 16.9945 30.6967 16.9945C30.8276 16.996 30.9578 16.9739 31.0809 16.9291L41.9698 12.9622V18.3682C41.9698 18.581 41.4419 19.3548 39.0963 20.0939C36.8545 20.8003 33.8532 21.1893 30.6453 21.1893C30.4494 21.1893 30.2543 21.1878 30.0601 21.1848C29.9504 21.1832 29.8415 21.1801 29.7323 21.1776C29.6499 21.1757 29.5672 21.1745 29.4853 21.1719C29.3386 21.1676 29.1928 21.1617 29.0473 21.1557C29.0047 21.1539 28.9619 21.1527 28.9195 21.1508C28.7522 21.1434 28.5861 21.1344 28.4207 21.1248C28.4013 21.1236 28.3816 21.1227 28.3621 21.1217C28.1823 21.1107 28.0035 21.0987 27.8259 21.0853L27.8133 21.0845C26.901 21.0155 26.0209 20.9133 25.1898 20.7798C25.0301 20.754 24.8707 20.7269 24.7115 20.6983L24.6723 20.6914C24.3436 20.6318 24.0161 20.5654 23.6901 20.4924C23.4341 20.4347 23.1791 20.3721 22.9255 20.3048C22.8694 20.2897 22.8136 20.2747 22.7584 20.2594C22.6737 20.2358 22.5898 20.2119 22.5068 20.1877C22.4082 20.1588 22.3094 20.1299 22.2134 20.0997C20.8768 19.68 20.0661 19.2174 19.6557 18.8534C19.4534 18.6708 19.3596 18.5222 19.331 18.427C19.3286 18.4178 19.3261 18.4088 19.3245 18.4001L19.3237 18.3968C19.3219 18.3874 19.3209 18.3778 19.3208 18.3682V12.9512L30.3138 16.9299ZM41.9939 24.4529C41.9939 30.0519 37.4386 34.6073 31.8395 34.6073H29.4964C23.8974 34.6073 19.342 30.0519 19.342 24.4529V21.2703C19.8042 21.5238 20.3402 21.7585 20.9459 21.975L20.9874 21.9898C21.0398 22.0085 21.0924 22.0271 21.146 22.0455C21.236 22.0764 21.3253 22.1061 21.4142 22.1349L21.4612 22.1499L21.5386 22.1749C21.5714 22.1853 21.606 22.1949 21.6392 22.205C21.691 22.221 21.7415 22.2373 21.7942 22.253C21.8253 22.2623 21.858 22.2709 21.8893 22.2802C22.0438 22.3254 22.1989 22.3688 22.3545 22.4102C22.5126 22.4522 22.6712 22.4925 22.8301 22.5312C22.9918 22.5705 23.1538 22.6079 23.3163 22.6435C23.4347 22.6695 23.5538 22.6951 23.6744 22.7196C23.7204 22.7291 23.7669 22.7383 23.8131 22.7475C23.9445 22.7737 24.0769 22.7993 24.2109 22.8238C24.2478 22.8306 24.2851 22.8371 24.3222 22.8439C24.4659 22.8696 24.6108 22.8947 24.7574 22.9187C24.786 22.9234 24.8147 22.9279 24.8435 22.9325C24.9984 22.9574 25.1546 22.9814 25.3125 23.0042L25.3787 23.0136C25.5432 23.0371 25.7086 23.0595 25.8758 23.0807C25.8931 23.083 25.9103 23.0849 25.9276 23.087C26.0992 23.1085 26.2719 23.129 26.4465 23.1482C26.4619 23.15 26.4774 23.1514 26.4928 23.153C26.6685 23.1721 26.8451 23.19 27.0232 23.2066C27.0416 23.2083 27.0601 23.2098 27.0784 23.2115C27.2538 23.2274 27.4299 23.2426 27.6075 23.2562C27.6326 23.2582 27.6583 23.2597 27.6834 23.2616C27.8545 23.2745 28.0263 23.2866 28.1994 23.2971C28.2364 23.2994 28.274 23.3011 28.311 23.3033C28.4726 23.3127 28.6347 23.3217 28.7979 23.3291C28.8572 23.3318 28.917 23.3337 28.9764 23.3361C29.119 23.342 29.2612 23.3479 29.4049 23.3522C29.5021 23.3552 29.6001 23.3568 29.6978 23.359C29.8053 23.3614 29.9124 23.3647 30.0203 23.3662C30.228 23.3694 30.4364 23.3711 30.6455 23.3711C34.0699 23.3711 37.3041 22.9462 39.7523 22.1748C39.8564 22.142 39.9602 22.1081 40.0635 22.073C40.1438 22.0459 40.2246 22.0181 40.3054 21.9891L40.3183 21.9847C40.4033 21.9542 40.4881 21.9228 40.5726 21.8906L40.633 21.8675C40.7195 21.8342 40.8057 21.8001 40.8915 21.765C40.9958 21.722 41.0996 21.6775 41.2027 21.6317C41.2765 21.5989 41.35 21.5653 41.423 21.5309C41.4348 21.5253 41.4468 21.5199 41.4585 21.5144C41.5404 21.4753 41.6218 21.435 41.7026 21.3936C41.721 21.3842 41.7391 21.3746 41.7574 21.3651C41.8271 21.329 41.8963 21.2918 41.965 21.2538C41.9746 21.2484 41.9845 21.2435 41.994 21.2382V24.4529H41.9939ZM30.5618 3.21635L46.1648 8.86366L30.6912 7.89111C30.0913 7.85206 29.5718 8.31013 29.5341 8.91155C29.4962 9.51286 29.9531 10.0309 30.5545 10.0687L41.6088 10.7635L30.695 14.7394L18.6013 10.362C18.561 10.3474 18.5198 10.3355 18.4785 10.3258L14.7503 8.97646L30.5618 3.21635Z" fill="#202020"/>
<path d="M46.8858 18.5645C46.2834 18.5645 45.7949 19.053 45.7949 19.6554V22.1145C45.7949 22.7169 46.2834 23.2054 46.8858 23.2054C47.4882 23.2054 47.9767 22.7169 47.9767 22.1145V19.6554C47.9767 19.053 47.4882 18.5645 46.8858 18.5645Z" fill="#202020"/>
</svg>
