<svg width="22" height="22" viewBox="0 0 22 22" fill="none" xmlns="http://www.w3.org/2000/svg">
<g clip-path="url(#clip0_5668_38423)">
<path d="M11 2.0625C9.23233 2.0625 7.50436 2.58668 6.0346 3.56874C4.56483 4.55081 3.41929 5.94665 2.74283 7.57977C2.06637 9.21288 1.88938 11.0099 2.23424 12.7436C2.57909 14.4773 3.43031 16.0698 4.68024 17.3198C5.93017 18.5697 7.52268 19.4209 9.25638 19.7658C10.9901 20.1106 12.7871 19.9336 14.4202 19.2572C16.0534 18.5807 17.4492 17.4352 18.4313 15.9654C19.4133 14.4956 19.9375 12.7677 19.9375 11C19.9375 8.62963 18.9959 6.35634 17.3198 4.68023C15.6437 3.00413 13.3704 2.0625 11 2.0625ZM10.3125 5.5C10.3125 5.31766 10.3849 5.1428 10.5139 5.01386C10.6428 4.88493 10.8177 4.8125 11 4.8125C11.1823 4.8125 11.3572 4.88493 11.4861 5.01386C11.6151 5.1428 11.6875 5.31766 11.6875 5.5V11C11.6875 11.1823 11.6151 11.3572 11.4861 11.4861C11.3572 11.6151 11.1823 11.6875 11 11.6875C10.8177 11.6875 10.6428 11.6151 10.5139 11.4861C10.3849 11.3572 10.3125 11.1823 10.3125 11V5.5ZM11 17.875C9.52498 17.8751 8.08902 17.4009 6.90422 16.5223C5.71942 15.6437 4.8486 14.4074 4.4204 12.9959C3.99219 11.5844 4.02929 10.0726 4.52624 8.68378C5.02318 7.29499 5.9536 6.10285 7.18008 5.28344C7.255 5.23046 7.33976 5.19301 7.42938 5.1733C7.51899 5.15359 7.61165 5.15202 7.70188 5.16868C7.79211 5.18534 7.87809 5.2199 7.95476 5.27031C8.03143 5.32072 8.09723 5.38597 8.14829 5.46221C8.19934 5.53845 8.23462 5.62414 8.25204 5.71422C8.26946 5.80431 8.26867 5.89698 8.24972 5.98675C8.23077 6.07653 8.19404 6.16161 8.14169 6.23697C8.08934 6.31233 8.02244 6.37645 7.94493 6.42555C6.96371 7.081 6.21931 8.03465 5.82168 9.14563C5.42405 10.2566 5.39427 11.466 5.73673 12.5952C6.0792 13.7245 6.77576 14.7136 7.72352 15.4165C8.67129 16.1195 9.82 16.499 11 16.499C12.18 16.499 13.3287 16.1195 14.2765 15.4165C15.2242 14.7136 15.9208 13.7245 16.2633 12.5952C16.6057 11.466 16.576 10.2566 16.1783 9.14563C15.7807 8.03465 15.0363 7.081 14.0551 6.42555C13.9776 6.37645 13.9107 6.31233 13.8583 6.23697C13.806 6.16161 13.7692 6.07653 13.7503 5.98675C13.7313 5.89698 13.7305 5.80431 13.748 5.71422C13.7654 5.62414 13.8007 5.53845 13.8517 5.46221C13.9028 5.38597 13.9686 5.32072 14.0452 5.27031C14.1219 5.2199 14.2079 5.18534 14.2981 5.16868C14.3884 5.15202 14.481 5.15359 14.5706 5.1733C14.6602 5.19301 14.745 5.23046 14.8199 5.28344C16.0464 6.10285 16.9768 7.29499 17.4738 8.68378C17.9707 10.0726 18.0078 11.5844 17.5796 12.9959C17.1514 14.4074 16.2806 15.6437 15.0958 16.5223C13.911 17.4009 12.475 17.8751 11 17.875Z" fill="#CC9A06"/>
</g>
<defs>
<clipPath id="clip0_5668_38423">
<rect width="22" height="22" fill="white"/>
</clipPath>
</defs>
</svg>
