<svg width="56" height="36" viewBox="0 0 56 36" fill="none" xmlns="http://www.w3.org/2000/svg">
<rect x="0.5" width="55" height="36" rx="2" fill="#E6AE06"/>
<path d="M36.1693 24.8417L32.4591 21.13C33.5715 19.6804 34.0909 17.8619 33.9119 16.0434C33.7328 14.2249 32.8687 12.5427 31.4949 11.3378C30.1211 10.133 28.3405 9.49584 26.5142 9.55561C24.6879 9.61538 22.9527 10.3676 21.6607 11.6597C20.3686 12.9518 19.6164 14.6869 19.5566 16.5132C19.4968 18.3395 20.134 20.1202 21.3388 21.494C22.5436 22.8678 24.2259 23.7318 26.0444 23.9109C27.8629 24.0899 29.6814 23.5706 31.131 22.4581L34.8443 26.1722C34.9315 26.2594 35.035 26.3286 35.149 26.3758C35.2629 26.423 35.385 26.4473 35.5083 26.4473C35.6317 26.4473 35.7538 26.423 35.8677 26.3758C35.9817 26.3286 36.0852 26.2594 36.1724 26.1722C36.2596 26.085 36.3288 25.9815 36.376 25.8675C36.4232 25.7536 36.4475 25.6315 36.4475 25.5081C36.4475 25.3848 36.4232 25.2627 36.376 25.1488C36.3288 25.0348 36.2596 24.9313 36.1724 24.8441L36.1693 24.8417ZM21.4435 16.755C21.4435 15.7043 21.7551 14.6772 22.3388 13.8036C22.9226 12.9299 23.7523 12.249 24.723 11.8469C25.6937 11.4448 26.7619 11.3396 27.7924 11.5446C28.8229 11.7496 29.7695 12.2555 30.5125 12.9985C31.2555 13.7415 31.7614 14.6881 31.9664 15.7186C32.1714 16.7491 32.0662 17.8173 31.6641 18.788C31.262 19.7588 30.5811 20.5885 29.7075 21.1722C28.8338 21.7559 27.8067 22.0675 26.756 22.0675C25.3475 22.0661 23.9971 21.5059 23.0011 20.5099C22.0051 19.514 21.4449 18.1635 21.4435 16.755Z" fill="white"/>
</svg>
