<svg width="60" height="60" viewBox="0 0 60 60" fill="none" xmlns="http://www.w3.org/2000/svg">
<path d="M12.0625 52.5L11.6875 49.4375L10.8125 49C10.5625 48.875 10.3333 48.7291 10.125 48.5625L7.25 49.75L4.9375 45.75L7.375 43.9375V42.125L4.9375 40.25L7.25 36.25L10.125 37.4375C10.75 37.0209 11.125 36.7812 11.25 36.7188L11.6875 36.5L12.0625 33.5H16.6876L17.0626 36.5625C17.2292 36.6459 17.3854 36.7187 17.5313 36.7812C17.6771 36.8438 17.8126 36.9166 17.9376 37C18.0626 37.0834 18.1771 37.1562 18.2813 37.2188C18.3854 37.2812 18.5001 37.3541 18.6251 37.4375L21.5001 36.25L23.8126 40.25L21.3751 42.0625C21.4583 42.3959 21.4792 42.7916 21.4376 43.25C21.3958 43.7084 21.3126 44.0209 21.1876 44.1875C21.2708 44.2709 21.3333 44.3125 21.3751 44.3125C21.4167 44.3125 21.4792 44.3541 21.5626 44.4375L37.4376 36.25L35.0626 40.5625L23.2501 46.625L21.5001 49.75L18.6251 48.5625C18.0001 48.9375 17.6251 49.1666 17.5001 49.25C17.3751 49.3334 17.2292 49.4166 17.0626 49.5L16.6876 52.5H12.0625ZM14.3751 38.75C13.2083 38.75 12.2083 39.1666 11.375 40C10.5417 40.8334 10.125 41.8334 10.125 43C10.125 44.1666 10.5417 45.1666 11.375 46C12.2083 46.8334 13.2083 47.25 14.3751 47.25C15.5417 47.25 16.5417 46.8334 17.3751 46C18.2083 45.1666 18.6251 44.1666 18.6251 43C18.6251 41.8334 18.2083 40.8334 17.3751 40C16.5417 39.1666 15.5417 38.75 14.3751 38.75ZM25.1876 24L24.8751 21C24.6251 20.8334 24.3751 20.6771 24.1251 20.5312C23.8751 20.3854 23.6251 20.2291 23.3751 20.0625L23.2501 20.125V37.5625L21.8751 35.125L20.5001 35.75V20.75L18.1251 17.25L20.5001 15.4375V13.625L18.0626 11.75L20.3751 7.75L23.2501 8.9375C23.8751 8.52084 24.2501 8.28125 24.3751 8.21875L24.8126 8L25.1876 5H29.8126L30.1876 8.0625L31.0626 8.5C31.3126 8.625 31.5417 8.77084 31.7501 8.9375L34.6251 7.75L36.9376 11.75L34.5001 13.5625V15.375L36.9376 17.25L34.6251 21.25L31.7501 20.0625C31.1251 20.4375 30.7501 20.6666 30.6251 20.75C30.5001 20.8334 30.3542 20.9166 30.1876 21L29.8126 24H25.1876ZM27.5001 10.25C26.3333 10.25 25.3333 10.6667 24.5001 11.5C23.6667 12.3333 23.2501 13.3334 23.2501 14.5C23.2501 15.6666 23.6667 16.6666 24.5001 17.5C25.3333 18.3334 26.3333 18.75 27.5001 18.75C28.6667 18.75 29.6667 18.3334 30.5001 17.5C31.3333 16.6666 31.7501 15.6666 31.7501 14.5C31.7501 13.3334 31.3333 12.3333 30.5001 11.5C29.6667 10.6667 28.6667 10.25 27.5001 10.25ZM43.3126 52.5L42.9376 49.4375L42.0626 49C41.8126 48.875 41.5833 48.7291 41.3751 48.5625L38.5001 49.75L36.1876 45.75L38.6251 43.9375V42.125L36.1876 40.3125L38.5001 36.25L41.3751 37.4375C41.6251 37.1875 41.8333 37 42.0001 36.875C42.1667 36.75 42.3542 36.6459 42.5626 36.5625L42.7501 35.8125L28.0626 24.875H30.5626L30.7501 23.4375L44.2501 33.5H47.9376L48.3126 36.5625C48.4792 36.6459 48.6354 36.7187 48.7813 36.7812C48.9271 36.8438 49.0626 36.9166 49.1876 37C49.3126 37.0834 49.4271 37.1562 49.5313 37.2188C49.6354 37.2812 49.7501 37.3541 49.8751 37.4375L52.7501 36.25L55.0626 40.25L52.6251 42.0625V43.875L55.0626 45.75L52.7501 49.75L49.8751 48.5625C49.2501 48.9375 48.8751 49.1666 48.7501 49.25C48.6251 49.3334 48.4792 49.4166 48.3126 49.5L47.9376 52.5H43.3126ZM45.6251 38.75C44.4583 38.75 43.4583 39.1666 42.6251 40C41.7917 40.8334 41.3751 41.8334 41.3751 43C41.3751 44.1666 41.7917 45.1666 42.6251 46C43.4583 46.8334 44.4583 47.25 45.6251 47.25C46.7917 47.25 47.7917 46.8334 48.6251 46C49.4583 45.1666 49.8751 44.1666 49.8751 43C49.8751 41.8334 49.4583 40.8334 48.6251 40C47.7917 39.1666 46.7917 38.75 45.6251 38.75Z" fill="#E6AE06"/>
</svg>
