<svg width="60" height="60" viewBox="0 0 60 60" fill="none" xmlns="http://www.w3.org/2000/svg">
<path d="M27.5 52.5V48.75H48.75V29.75C48.75 24.5962 46.9309 20.2246 43.2925 16.635C39.6541 13.045 35.2234 11.25 30 11.25C24.7766 11.25 20.3459 13.045 16.7075 16.635C13.0691 20.2246 11.25 24.5962 11.25 29.75V45H10C8.625 45 7.44791 44.5104 6.46875 43.5312C5.48959 42.5521 5 41.375 5 40V35C5 34.125 5.21875 33.3021 5.65625 32.5312C6.09375 31.7604 6.70834 31.1459 7.5 30.6875L7.6875 27.375C8.02084 24.5416 8.84375 21.9166 10.1562 19.5C11.4688 17.0834 13.1146 14.9791 15.0938 13.1875C17.0729 11.3958 19.3438 10 21.9062 9C24.4688 8 27.1666 7.5 30 7.5C32.8334 7.5 35.5209 8 38.0625 9C40.6041 10 42.875 11.3854 44.875 13.1562C46.875 14.9271 48.5209 17.0209 49.8125 19.4375C51.1041 21.8541 51.9375 24.4791 52.3125 27.3125L52.5 30.5625C53.2916 30.9375 53.9062 31.5 54.3438 32.25C54.7812 33 55 33.7916 55 34.625V40.375C55 41.2084 54.7812 42 54.3438 42.75C53.9062 43.5 53.2916 44.0625 52.5 44.4375V48.75C52.5 49.7812 52.1329 50.664 51.3988 51.3981C50.6641 52.1328 49.7812 52.5 48.75 52.5H27.5ZM22.4887 34.375C21.9546 34.375 21.5104 34.1941 21.1562 33.8325C20.8021 33.4713 20.625 33.0234 20.625 32.4887C20.625 31.9546 20.8059 31.5104 21.1675 31.1562C21.5287 30.8021 21.9766 30.625 22.5113 30.625C23.0454 30.625 23.4896 30.8059 23.8438 31.1675C24.1979 31.5287 24.375 31.9766 24.375 32.5113C24.375 33.0454 24.1941 33.4896 23.8325 33.8438C23.4713 34.1979 23.0234 34.375 22.4887 34.375ZM37.4888 34.375C36.9546 34.375 36.5104 34.1941 36.1562 33.8325C35.8021 33.4713 35.625 33.0234 35.625 32.4887C35.625 31.9546 35.8059 31.5104 36.1675 31.1562C36.5287 30.8021 36.9766 30.625 37.5112 30.625C38.0454 30.625 38.4896 30.8059 38.8438 31.1675C39.1979 31.5287 39.375 31.9766 39.375 32.5113C39.375 33.0454 39.1941 33.4896 38.8325 33.8438C38.4712 34.1979 38.0234 34.375 37.4888 34.375ZM15.0625 31.125C14.7709 26.7084 16.1041 22.9166 19.0625 19.75C22.0209 16.5834 25.7084 15 30.125 15C33.75 15 36.8959 16.1979 39.5625 18.5938C42.2291 20.9896 43.8541 23.9791 44.4375 27.5625C40.7291 27.5209 37.3438 26.4791 34.2812 24.4375C31.2187 22.3959 28.8484 19.7084 27.17 16.375C26.515 19.7084 25.1146 22.6771 22.9688 25.2812C20.8229 27.8854 18.1875 29.8334 15.0625 31.125Z" fill="#E6AE06"/>
</svg>
