<svg width="60" height="60" viewBox="0 0 60 60" fill="none" xmlns="http://www.w3.org/2000/svg">
<path d="M57.5 25.0625C54.4854 25.0625 51.5963 24.5 48.8325 23.375C46.0691 22.25 43.625 20.6215 41.5 18.4894C39.375 16.3577 37.7396 13.9122 36.5938 11.1531C35.4479 8.39437 34.875 5.51 34.875 2.5H38.6875C38.6875 5 39.1666 7.40625 40.125 9.71875C41.0834 12.0312 42.4375 14.0625 44.1875 15.8125C45.9375 17.5625 47.9687 18.9166 50.2812 19.875C52.5938 20.8334 55 21.3125 57.5 21.3125V25.0625ZM57.5625 13.875C56.0625 13.875 54.6191 13.5944 53.2325 13.0331C51.8459 12.4715 50.6016 11.6479 49.5 10.5625C48.4146 9.46084 47.591 8.21666 47.0294 6.83C46.4681 5.44334 46.1875 4 46.1875 2.5H49.9375C49.9375 3.5 50.13 4.46875 50.515 5.40625C50.8996 6.34375 51.4363 7.16666 52.125 7.875C52.8334 8.58334 53.6666 9.13541 54.625 9.53125C55.5834 9.92709 56.5625 10.125 57.5625 10.125V13.875ZM25 32.4375C22.25 32.4375 20 31.5625 18.25 29.8125C16.5 28.0625 15.625 25.8125 15.625 23.0625C15.625 20.3125 16.5 18.0625 18.25 16.3125C20 14.5625 22.25 13.6875 25 13.6875C27.75 13.6875 30 14.5625 31.75 16.3125C33.5 18.0625 34.375 20.3125 34.375 23.0625C34.375 25.8125 33.5 28.0625 31.75 29.8125C30 31.5625 27.75 32.4375 25 32.4375ZM5 52.5V46.625C5 45.0416 5.39584 43.6979 6.1875 42.5938C6.97916 41.4896 8 40.625 9.25 40C11.375 38.9166 13.8854 38.0209 16.7812 37.3125C19.6771 36.6041 22.4166 36.25 25 36.25C27.5834 36.25 30.3125 36.6041 33.1875 37.3125C36.0625 38.0209 38.5625 38.9166 40.6875 40C41.9375 40.625 42.9688 41.4896 43.7812 42.5938C44.5938 43.6979 45 45.0416 45 46.625V52.5H5ZM8.75 48.75H41.25V46.625C41.25 45.9454 41.0729 45.3275 40.7188 44.7713C40.3646 44.2154 39.8541 43.75 39.1875 43.375C37.1875 42.25 34.9166 41.4062 32.375 40.8438C29.8334 40.2812 27.375 40 25 40C22.625 40 20.1562 40.3021 17.5938 40.9062C15.0312 41.5104 12.75 42.3334 10.75 43.375C10.1667 43.6666 9.6875 44.1146 9.3125 44.7188C8.9375 45.3229 8.75 45.9584 8.75 46.625V48.75ZM25 28.6875C26.625 28.6875 27.9688 28.1562 29.0312 27.0938C30.0938 26.0312 30.625 24.6875 30.625 23.0625C30.625 21.4375 30.0938 20.0938 29.0312 19.0312C27.9688 17.9688 26.625 17.4375 25 17.4375C23.375 17.4375 22.0312 17.9688 20.9688 19.0312C19.9062 20.0938 19.375 21.4375 19.375 23.0625C19.375 24.6875 19.9062 26.0312 20.9688 27.0938C22.0312 28.1562 23.375 28.6875 25 28.6875Z" fill="#E6AE06"/>
</svg>
