<svg width="60" height="60" viewBox="0 0 60 60" fill="none" xmlns="http://www.w3.org/2000/svg">
<g clip-path="url(#clip0_3528_1679)">
<path d="M11.25 45.4375V48.75V82.9375V45.4375ZM11.25 52.5C10.2188 52.5 9.33604 52.1328 8.60187 51.3981C7.86729 50.664 7.5 49.7812 7.5 48.75V11.25C7.5 10.2188 7.86729 9.33584 8.60187 8.60125C9.33604 7.86709 10.2188 7.5 11.25 7.5H48.75C49.7812 7.5 50.6641 7.86709 51.3988 8.60125C52.1329 9.33584 52.5 10.2188 52.5 11.25V19.625H48.75V11.25H11.25V48.75H48.75V40.4375H52.5V48.75C52.5 49.7812 52.1329 50.664 51.3988 51.3981C50.6641 52.1328 49.7812 52.5 48.75 52.5H11.25ZM33.625 41.6875C32.3534 41.6875 31.2646 41.2409 30.3588 40.3475C29.4529 39.4538 29 38.3796 29 37.125V22.9375C29 21.6829 29.4529 20.6088 30.3588 19.715C31.2646 18.8216 32.3534 18.375 33.625 18.375H50.5C51.7721 18.375 52.8609 18.8216 53.7663 19.715C54.6721 20.6088 55.125 21.6829 55.125 22.9375V37.125C55.125 38.3796 54.6721 39.4538 53.7663 40.3475C52.8609 41.2409 51.7721 41.6875 50.5 41.6875H33.625ZM51.375 37.9375V22.125H32.75V37.9375H51.375ZM40.765 34C41.88 34 42.8229 33.605 43.5938 32.815C44.3646 32.025 44.75 31.0659 44.75 29.9375C44.75 28.8438 44.3541 27.914 43.5625 27.1481C42.7709 26.3827 41.8334 26 40.75 26C39.6666 26 38.7291 26.3827 37.9375 27.1481C37.1459 27.914 36.75 28.8438 36.75 29.9375C36.75 31.0659 37.1404 32.025 37.9212 32.815C38.7016 33.605 39.6496 34 40.765 34Z" fill="#E6AE06"/>
</g>
<defs>
<clipPath id="clip0_3528_1679">
<rect width="60" height="60" fill="white"/>
</clipPath>
</defs>
</svg>
