<svg width="60" height="60" viewBox="0 0 60 60" fill="none" xmlns="http://www.w3.org/2000/svg">
<path d="M0 45V41.6875C0 40.0804 0.864584 38.7725 2.59375 37.7638C4.32291 36.7546 6.59125 36.25 9.39875 36.25C9.90541 36.25 10.3927 36.2604 10.8606 36.2812C11.3285 36.3021 11.7917 36.3469 12.25 36.4156C11.9167 37.1385 11.6667 37.8713 11.5 38.6138C11.3333 39.3559 11.25 40.1304 11.25 40.9375V45H0ZM15 45V40.9375C15 39.6041 15.3646 38.3854 16.0938 37.2812C16.8229 36.1771 17.8541 35.2084 19.1875 34.375C20.5209 33.5416 22.1146 32.9166 23.9688 32.5C25.8229 32.0834 27.8334 31.875 30 31.875C32.2084 31.875 34.2396 32.0834 36.0938 32.5C37.9479 32.9166 39.5416 33.5416 40.875 34.375C42.2084 35.2084 43.2291 36.1771 43.9375 37.2812C44.6459 38.3854 45 39.6041 45 40.9375V45H15ZM48.75 45V40.9375C48.75 40.11 48.6771 39.3302 48.5312 38.5981C48.3854 37.866 48.1459 37.1402 47.8125 36.4206C48.2709 36.3485 48.7327 36.3021 49.1981 36.2812C49.6635 36.2604 50.1391 36.25 50.625 36.25C53.4375 36.25 55.7031 36.7452 57.4219 37.7356C59.1406 38.726 60 40.0434 60 41.6875V45H48.75ZM18.75 41.25H41.25V40.875C41.25 39.3334 40.1979 38.0729 38.0938 37.0938C35.9896 36.1146 33.2916 35.625 30 35.625C26.7084 35.625 24.0104 36.1146 21.9062 37.0938C19.8021 38.0729 18.75 39.3541 18.75 40.9375V41.25ZM9.34812 34.375C8.15771 34.375 7.13541 33.9466 6.28125 33.09C5.42709 32.2329 5 31.2029 5 30C5 28.7916 5.42834 27.7604 6.285 26.9062C7.14209 26.0521 8.17209 25.625 9.375 25.625C10.5833 25.625 11.6146 26.0521 12.4688 26.9062C13.3229 27.7604 13.75 28.8006 13.75 30.0269C13.75 31.2172 13.3229 32.2396 12.4688 33.0938C11.6146 33.9479 10.5744 34.375 9.34812 34.375ZM50.5981 34.375C49.4077 34.375 48.3854 33.9466 47.5312 33.09C46.6771 32.2329 46.25 31.2029 46.25 30C46.25 28.7916 46.6784 27.7604 47.535 26.9062C48.3921 26.0521 49.4221 25.625 50.625 25.625C51.8334 25.625 52.8646 26.0521 53.7188 26.9062C54.5729 27.7604 55 28.8006 55 30.0269C55 31.2172 54.5729 32.2396 53.7188 33.0938C52.8646 33.9479 51.8244 34.375 50.5981 34.375ZM30 30C27.9166 30 26.1459 29.2709 24.6875 27.8125C23.2291 26.3541 22.5 24.5834 22.5 22.5C22.5 20.375 23.2291 18.5938 24.6875 17.1563C26.1459 15.7188 27.9166 15 30 15C32.125 15 33.9062 15.7188 35.3438 17.1563C36.7812 18.5938 37.5 20.375 37.5 22.5C37.5 24.5834 36.7812 26.3541 35.3438 27.8125C33.9062 29.2709 32.125 30 30 30ZM30.0219 26.25C31.0906 26.25 31.9791 25.8885 32.6875 25.1656C33.3959 24.4427 33.75 23.5469 33.75 22.4781C33.75 21.4094 33.3927 20.5209 32.6781 19.8125C31.9635 19.1041 31.0781 18.75 30.0219 18.75C28.9656 18.75 28.0729 19.1073 27.3438 19.8219C26.6146 20.5365 26.25 21.4219 26.25 22.4781C26.25 23.5344 26.6115 24.4271 27.3344 25.1562C28.0573 25.8854 28.9531 26.25 30.0219 26.25Z" fill="#E6AE06"/>
</svg>
