<svg width="60" height="60" viewBox="0 0 60 60" fill="none" xmlns="http://www.w3.org/2000/svg">
<path d="M33.75 33.75C31.6666 33.75 29.8959 33.0209 28.4375 31.5625C26.9791 30.1041 26.25 28.3334 26.25 26.25C26.25 24.1666 26.9791 22.3959 28.4375 20.9375C29.8959 19.4791 31.6666 18.75 33.75 18.75C35.8334 18.75 37.6041 19.4791 39.0625 20.9375C40.5209 22.3959 41.25 24.1666 41.25 26.25C41.25 28.3334 40.5209 30.1041 39.0625 31.5625C37.6041 33.0209 35.8334 33.75 33.75 33.75ZM13.75 42.5C12.7188 42.5 11.836 42.1328 11.1019 41.3981C10.3673 40.664 10 39.7812 10 38.75V13.75C10 12.7188 10.3673 11.8358 11.1019 11.1012C11.836 10.3671 12.7188 10 13.75 10H53.75C54.7812 10 55.6641 10.3671 56.3988 11.1012C57.1329 11.8358 57.5 12.7188 57.5 13.75V38.75C57.5 39.7812 57.1329 40.664 56.3988 41.3981C55.6641 42.1328 54.7812 42.5 53.75 42.5H13.75ZM20 38.75H47.5C47.5 37 48.1041 35.5209 49.3125 34.3125C50.5209 33.1041 52 32.5 53.75 32.5V20C52 20 50.5209 19.3959 49.3125 18.1875C48.1041 16.9791 47.5 15.5 47.5 13.75H20C20 15.5 19.3959 16.9791 18.1875 18.1875C16.9791 19.3959 15.5 20 13.75 20V32.5C15.5 32.5 16.9791 33.1041 18.1875 34.3125C19.3959 35.5209 20 37 20 38.75ZM50 50H6.25C5.21875 50 4.33604 49.6328 3.60188 48.8981C2.86729 48.164 2.5 47.2812 2.5 46.25V17.5H6.25V46.25H50V50Z" fill="#E6AE06"/>
</svg>
