<svg width="24" height="24" viewBox="0 0 24 24" fill="none" xmlns="http://www.w3.org/2000/svg">
<path d="M7.16968 21.975C6.67313 21.975 6.24988 21.7983 5.89988 21.4447C5.54988 21.0912 5.37488 20.6663 5.37488 20.1698C5.37488 19.6733 5.55163 19.25 5.90513 18.9C6.25868 18.55 6.68363 18.375 7.18013 18.375C7.67663 18.375 8.09993 18.5518 8.44993 18.9053C8.79988 19.2588 8.97493 19.6838 8.97493 20.1803C8.97493 20.6768 8.79818 21.1 8.44468 21.45C8.09118 21.8 7.66618 21.975 7.16968 21.975ZM17.1697 21.975C16.6731 21.975 16.2499 21.7983 15.8999 21.4447C15.5499 21.0912 15.3749 20.6663 15.3749 20.1698C15.3749 19.6733 15.5517 19.25 15.9052 18.9C16.2587 18.55 16.6837 18.375 17.1802 18.375C17.6767 18.375 18.0999 18.5518 18.4499 18.9053C18.7999 19.2588 18.9749 19.6838 18.9749 20.1803C18.9749 20.6768 18.7981 21.1 18.4446 21.45C18.0912 21.8 17.6662 21.975 17.1697 21.975ZM5.87488 5.475L8.62493 11.175H15.8249L18.9499 5.475H5.87488ZM5.12488 3.975H19.8517C20.2345 3.975 20.5257 4.15 20.7254 4.5C20.9251 4.85 20.9249 5.2 20.7249 5.55L17.3499 11.625C17.1666 11.9417 16.9286 12.1958 16.6359 12.3875C16.3432 12.5792 16.0229 12.675 15.6749 12.675H8.09993L6.69993 15.275H18.9749V16.775H6.92488C6.22488 16.775 5.72073 16.5417 5.41238 16.075C5.10408 15.6084 5.10823 15.0834 5.42488 14.5L7.02488 11.55L3.2249 3.5H1.2749V2H4.1999L5.12488 3.975Z" fill="black"/>
</svg>
