<svg width="26" height="26" viewBox="0 0 26 26" fill="none" xmlns="http://www.w3.org/2000/svg">
<path d="M2.57882 15.7169C2.83259 15.9705 3.17673 16.1131 3.53556 16.1131C3.89439 16.1131 4.23853 15.9705 4.49229 15.7169L11.1908 9.01836L17.8893 15.7169C18.1445 15.9634 18.4863 16.0998 18.8411 16.0967C19.196 16.0936 19.5354 15.9513 19.7863 15.7004C20.0372 15.4495 20.1795 15.1101 20.1826 14.7553C20.1856 14.4004 20.0493 14.0586 19.8027 13.8034L12.1475 6.14816C11.8938 5.89447 11.5496 5.75195 11.1908 5.75195C10.832 5.75195 10.4878 5.89447 10.2341 6.14816L2.57882 13.8034C2.32513 14.0572 2.18262 14.4013 2.18262 14.7601C2.18262 15.119 2.32513 15.4631 2.57882 15.7169Z" fill="#E6AE06"/>
</svg>
