<svg width="32" height="33" viewBox="0 0 32 33" fill="none" xmlns="http://www.w3.org/2000/svg">
<rect y="0.217773" width="32" height="32" rx="16" fill="#4CAF50" fill-opacity="0.1"/>
<path d="M22.3333 12.8844H23V19.5511H22.3333V21.5511C22.3333 21.7378 22.2689 21.8956 22.14 22.0244C22.0111 22.1533 21.8533 22.2178 21.6667 22.2178H9.66667C9.48 22.2178 9.32222 22.1533 9.19333 22.0244C9.06444 21.8956 9 21.7378 9 21.5511V10.8844C9 10.6978 9.06444 10.54 9.19333 10.4111C9.32222 10.2822 9.48 10.2178 9.66667 10.2178H21.6667C21.8533 10.2178 22.0111 10.2822 22.14 10.4111C22.2689 10.54 22.3333 10.6978 22.3333 10.8844V12.8844ZM21 19.5511H17C16.3956 19.5511 15.8378 19.4022 15.3267 19.1044C14.8156 18.8067 14.4111 18.4022 14.1133 17.8911C13.8156 17.38 13.6667 16.8222 13.6667 16.2178C13.6667 15.6133 13.8156 15.0556 14.1133 14.5444C14.4111 14.0333 14.8156 13.6289 15.3267 13.3311C15.8378 13.0333 16.3956 12.8844 17 12.8844H21V11.5511H10.3333V20.8844H21V19.5511ZM21.6667 18.2178V14.2178H17C16.6356 14.2178 16.3 14.3067 15.9933 14.4844C15.6867 14.6622 15.4444 14.9044 15.2667 15.2111C15.0889 15.5178 15 15.8533 15 16.2178C15 16.5822 15.0889 16.9178 15.2667 17.2244C15.4444 17.5311 15.6867 17.7733 15.9933 17.9511C16.3 18.1289 16.6356 18.2178 17 18.2178H21.6667ZM17 15.5511H19V16.8844H17V15.5511Z" fill="#4CAF50"/>
</svg>
